<svg width="225" height="106" viewBox="0 0 225 106" fill="none" xmlns="http://www.w3.org/2000/svg">
<path d="M0 28C0 12.536 12.536 0 28 0H121V106H25C11.1929 106 0 94.8071 0 81V28Z" fill="#48E9FF"/>
<path d="M110 0H197C212.464 0 225 12.536 225 28V78C225 93.464 212.464 106 197 106H110V0Z" fill="#FFCC19"/>
<path d="M35.8416 57.9551C36.3301 57.8763 36.726 57.9702 37.0292 58.237C37.3581 58.4996 37.5675 58.821 37.6573 59.2012C37.7471 59.5813 37.7024 59.9569 37.5231 60.3279C37.3696 60.6947 37.0486 60.9176 36.5601 60.9964C36.2893 61.0928 36.1085 61.1746 36.0176 61.2419C35.5077 61.4557 35.0423 61.6887 34.6214 61.9409C33.5089 62.5414 32.4084 63.1927 31.3198 63.8946C30.7035 64.3362 30.0902 64.7904 29.4799 65.2572C28.8893 65.6946 28.3077 66.17 27.735 66.6834C27.6047 66.8097 27.4744 66.936 27.3441 67.0623C27.2078 67.1632 27.0874 67.2747 26.9828 67.3969C28.7289 68.0095 30.5252 68.4957 32.3717 68.8554C34.2379 69.1856 36.0864 69.6107 37.9174 70.1307C38.3509 70.2712 38.67 70.5486 38.8746 70.9628C39.0733 71.3517 39.1117 71.7402 38.9898 72.1282C38.8483 72.5457 38.5838 72.8384 38.1964 73.0062C37.8287 73.1445 37.4281 73.1433 36.9946 73.0028C35.9099 72.7044 34.8054 72.4354 33.6813 72.1959C32.5829 71.9523 31.4746 71.7234 30.3564 71.5092C29.2579 71.2656 28.1565 71.0093 27.0521 70.7403C25.9476 70.4713 24.8569 70.1475 23.78 69.7688C23.4039 69.6454 23.0878 69.3807 22.8317 68.9747C22.6014 68.5646 22.5759 68.1741 22.7551 67.8031C23.0742 67.1201 23.4725 66.4902 23.95 65.9132C24.4276 65.3362 24.9526 64.791 25.5253 64.2776C26.0979 63.7642 26.6924 63.2867 27.3087 62.8451C27.9507 62.3995 28.57 61.9706 29.1666 61.5586C29.8343 61.1087 30.508 60.6842 31.1877 60.2851C31.8614 59.8606 32.5381 59.4488 33.2178 59.0496C33.6249 58.8524 34.0448 58.653 34.4777 58.4516C34.9302 58.2207 35.3849 58.0552 35.8416 57.9551ZM47.6914 72.6968C46.9983 72.3614 46.3447 71.967 45.7305 71.5136C45.136 71.0308 44.5741 70.5163 44.0448 69.9703C43.5591 69.4962 43.0773 68.982 42.5994 68.4277C42.1215 67.8734 41.6791 67.3002 41.2724 66.7081C40.8656 66.116 40.5072 65.5029 40.1973 64.8689C39.9131 64.2307 39.7189 63.578 39.6146 62.9107C39.3864 61.6057 39.2155 60.3178 39.1021 59.0469C39.0084 57.7465 38.985 56.461 39.0318 55.1906C39.0268 54.7178 39.0356 54.1901 39.0582 53.6077C39.0807 53.0252 39.1478 52.4619 39.2594 51.9176C39.3908 51.3439 39.5726 50.8146 39.8051 50.3298C40.0375 49.845 40.3839 49.4471 40.8441 49.136C41.5376 48.682 42.2819 48.4434 43.0771 48.4203C43.8663 48.3718 44.6598 48.4542 45.4575 48.6675C46.2809 48.8766 47.0837 49.1679 47.8658 49.5416C48.6421 49.8898 49.3797 50.2444 50.0788 50.6051C50.7204 50.9488 51.3552 51.3199 51.9832 51.7184C52.6308 52.0875 53.2884 52.4417 53.9557 52.7813C54.7619 53.2563 55.568 53.7313 56.3742 54.2063C57.206 54.6771 57.9303 55.2574 58.5469 55.9472C59.2647 56.7259 59.7669 57.5525 60.0536 58.4271C60.3343 59.2764 60.4736 60.1484 60.4715 61.0433C60.4634 61.9129 60.3367 62.7885 60.0912 63.67C59.8458 64.5516 59.5558 65.414 59.2212 66.2574C58.9141 66.991 58.5389 67.7751 58.0955 68.6097C57.6778 69.4402 57.1681 70.2197 56.5662 70.9483C55.9901 71.6728 55.3197 72.2809 54.5552 72.7727C53.8163 73.2603 52.9721 73.5281 52.0227 73.5762C51.4648 73.5873 51.0184 73.4489 50.6835 73.1609C50.1771 73.1637 49.6775 73.1391 49.1848 73.0871C48.6921 73.0351 48.1943 72.905 47.6914 72.6968ZM42.6368 62.1466C42.7351 62.7885 42.8985 63.3672 43.127 63.8829C43.3813 64.3943 43.7277 64.9567 44.1662 65.57C44.6997 66.2469 45.2749 66.9302 45.8915 67.62C46.5022 68.2844 47.1751 68.873 47.9101 69.3858C48.556 69.8603 49.2281 70.107 49.9265 70.1258C50.3815 70.1313 50.8236 70.1389 51.2529 70.1485C51.6762 70.1328 52.1085 70.1551 52.5498 70.2154C52.6921 70.1398 52.8344 70.0642 52.9767 69.9886C53.1129 69.8877 53.2432 69.7614 53.3676 69.6098C53.7388 69.2604 54.0654 68.892 54.3475 68.5044C54.6296 68.1168 54.8958 67.7187 55.1462 67.3099C55.6213 66.4965 56.0557 65.6239 56.4494 64.6921C56.8688 63.7561 57.1537 62.8156 57.3041 61.8704C57.4544 60.9253 57.3982 60.0661 57.1355 59.2929C56.8727 58.5197 56.3203 57.8195 55.4783 57.1925C54.6996 56.6078 53.8716 56.0968 52.9944 55.6596C52.1368 55.1929 51.2921 54.7242 50.4602 54.2533C49.7492 53.8419 49.057 53.4537 48.3836 53.0888C47.7102 52.724 46.9914 52.3927 46.2272 52.0951C45.5144 51.7892 44.8384 51.5826 44.1992 51.4753C44.1161 51.4624 44.036 51.4622 43.9588 51.4747C43.9014 51.4576 43.8312 51.4427 43.7481 51.4298L43.1606 51.4851C42.9669 51.569 42.8504 51.6405 42.8109 51.6995C42.6789 51.9313 42.6 52.0492 42.5743 52.0534C42.4662 52.3866 42.4014 52.6207 42.3799 52.7557C42.3584 52.8907 42.3292 53.1059 42.2922 53.4013C42.2087 54.1778 42.1669 54.9607 42.1665 55.7501C42.1602 56.5141 42.1796 57.274 42.2247 58.0297C42.2698 58.7854 42.3127 59.4757 42.3536 60.1006C42.4202 60.7213 42.5146 61.4033 42.6368 62.1466ZM69.0724 71.6919C68.7424 71.8768 68.3349 71.9031 67.85 71.7709C67.3907 71.6345 67.0875 71.3678 66.9403 70.9706C66.0535 68.7984 65.3012 66.6308 64.6834 64.4678C64.0854 62.2754 63.5229 60.064 62.996 57.8337C62.9062 57.4536 62.9372 57.1328 63.089 56.8715C63.2408 56.6102 63.4491 56.4187 63.7139 56.297C63.9787 56.1754 64.2714 56.115 64.5919 56.1158C64.9124 56.1167 65.1994 56.2019 65.453 56.3715C65.9305 55.7945 66.4616 55.2746 67.0462 54.8119C67.6308 54.3492 68.2453 54.0132 68.8898 53.8039C69.554 53.5651 70.2443 53.4931 70.9606 53.588C71.6709 53.6575 72.3936 53.9486 73.1286 54.4614C73.7368 54.8895 74.2898 55.3659 74.7874 55.8907C75.279 56.3901 75.7411 56.9338 76.1736 57.5218C76.3317 56.4965 76.662 55.5223 77.1646 54.5992C77.6671 53.6761 78.4253 52.988 79.4392 52.5349C80.1883 52.2035 80.8301 52.1525 81.3648 52.382C81.8934 52.586 82.4352 52.959 82.9902 53.5008C83.577 54.0639 84.1281 54.6458 84.6437 55.2467C85.1851 55.8434 85.7036 56.4569 86.1995 57.0872C86.6954 57.7175 87.1784 58.3499 87.6486 58.9844C88.1188 59.6189 88.5859 60.2407 89.0501 60.8499C89.5837 61.5267 90.0658 62.2119 90.4965 62.9054C90.947 63.5694 91.3066 64.3006 91.5753 65.0992C91.7285 65.5217 91.6611 65.9141 91.373 66.2764C91.1046 66.6091 90.7776 66.8066 90.392 66.8688C89.955 66.9394 89.5621 66.8581 89.2134 66.625C88.8845 66.3624 88.6434 66.0198 88.4902 65.5972C88.2951 64.9973 87.9903 64.4413 87.5758 63.9294C87.181 63.388 86.7892 62.8593 86.4004 62.3432C85.9798 61.806 85.5563 61.256 85.1298 60.6934C84.7291 60.1267 84.3184 59.5747 83.8979 59.0374C83.4774 58.5002 83.0312 57.967 82.5593 57.4381C82.113 56.905 81.6441 56.3887 81.1525 55.8892C81.0831 55.8215 81.0137 55.7538 80.9443 55.686C80.8749 55.6183 80.8056 55.5506 80.7362 55.4828C80.2879 55.8446 79.978 56.1709 79.8064 56.4617C79.6349 56.7525 79.4972 57.1299 79.3934 57.594C79.3032 58.0032 79.2448 58.4336 79.218 58.8852C79.211 59.3073 79.2198 59.74 79.2444 60.1833C79.2818 61.0192 79.3667 61.8869 79.4991 62.7864C79.6034 63.4537 79.7531 64.0873 79.9482 64.6872C80.169 65.283 80.293 65.9208 80.3201 66.6005C80.3388 67.0184 80.1664 67.362 79.803 67.6311C79.4652 67.8961 79.0916 68.0091 78.682 67.97C78.2981 67.9267 77.9863 67.7929 77.7464 67.5685C77.5263 67.3146 77.3486 67.0144 77.2134 66.6679C76.9189 65.8735 76.6057 65.0558 76.2736 64.2149C75.9414 63.3739 75.5737 62.5519 75.1705 61.7487C74.7612 60.9202 74.2967 60.1401 73.7769 59.4084C73.2768 58.6472 72.6888 57.966 72.013 57.3647C71.5453 56.9666 71.1006 56.7227 70.6791 56.6328C70.2832 56.5389 69.8483 56.6749 69.3743 57.0408C68.8548 57.4404 68.3632 57.9013 67.8994 58.4234C67.4356 58.9456 67.048 59.5081 66.7367 60.1108C67.1456 61.7287 67.5802 63.3424 68.0406 64.952C68.5206 66.5321 69.0778 68.0997 69.7121 69.6548C69.8653 70.0774 69.8938 70.4806 69.7977 70.8645C69.7213 71.2188 69.4795 71.4947 69.0724 71.6919ZM97.0185 65.6017C96.0546 65.3627 95.2377 64.9552 94.5679 64.3793C93.9178 63.7738 93.3941 63.0822 92.9968 62.3044C92.6252 61.5225 92.3762 60.6944 92.2498 59.8203C92.1173 58.9208 92.0967 58.0427 92.1879 57.186C92.2696 56.5151 92.371 55.8146 92.4922 55.0847C92.639 54.3506 92.8493 53.6589 93.1229 53.0096C93.3965 52.3603 93.7682 51.7872 94.238 51.2904C94.7018 50.7682 95.3044 50.3815 96.0457 50.1303C96.8128 49.8749 97.6007 49.7082 98.4097 49.6303C99.2384 49.5228 100.066 49.4681 100.893 49.4661C101.265 49.4587 101.633 49.4914 101.997 49.5642C102.355 49.6116 102.716 49.6717 103.081 49.7444C103.017 49.3601 103.109 49.0164 103.357 48.7131C103.632 48.4057 103.949 48.223 104.309 48.1649C104.746 48.0943 105.129 48.1903 105.458 48.453C105.806 48.6861 106.054 49.0013 106.202 49.3985C106.606 50.5435 106.932 51.7011 107.182 52.871C107.458 54.0369 107.694 55.2089 107.893 56.3872C108.117 57.5613 108.341 58.7354 108.565 59.9096C108.814 61.0795 109.103 62.2433 109.43 63.4008C109.569 63.8782 109.502 64.2706 109.227 64.578C108.973 64.8559 108.653 65.026 108.267 65.0882C107.881 65.1505 107.494 65.0945 107.106 64.9204C106.738 64.7168 106.484 64.3762 106.344 63.8989C105.023 64.7437 103.551 65.3496 101.93 65.7166C100.302 66.0583 98.6653 66.02 97.0185 65.6017ZM95.3396 57.3087C95.2931 57.7898 95.2744 58.3322 95.2836 58.9358C95.2928 59.5395 95.3859 60.1033 95.5631 60.6272C95.7402 61.1511 96.0241 61.6184 96.4147 62.0289C96.7992 62.4141 97.3339 62.6435 98.0185 62.7172C99.4254 62.911 100.764 62.8134 102.033 62.4243C103.328 62.0311 104.467 61.3736 105.45 60.4519C105.26 59.1934 105.052 57.9771 104.828 56.803C104.63 55.6247 104.377 54.4421 104.07 53.255C103.567 53.0468 103.06 52.8787 102.55 52.7506C102.059 52.5931 101.534 52.5199 100.977 52.531C100.419 52.5421 99.8283 52.5848 99.2053 52.6591C98.602 52.7039 98.0236 52.7972 97.47 52.9392C97.4186 52.9475 97.2861 53.0084 97.0727 53.1218C96.879 53.2057 96.7723 53.2624 96.7526 53.2918C96.5254 53.4601 96.342 53.7002 96.2022 54.0122C95.9757 54.5223 95.7968 55.0642 95.6655 55.638C95.5281 56.1864 95.4195 56.7433 95.3396 57.3087ZM124.224 44.5156C124.632 44.6603 124.948 44.925 125.173 45.3097C125.397 45.6945 125.422 46.085 125.249 46.4813C124.822 47.4975 124.57 48.5774 124.493 49.7212C124.442 50.8608 124.334 51.9833 124.168 53.0888C123.994 54.2745 123.76 55.4305 123.466 56.5568C123.197 57.6789 122.893 58.8199 122.553 59.9798C122.532 60.1148 122.494 60.2392 122.441 60.3531C122.408 60.4374 122.38 60.5471 122.359 60.6821C122.557 61.071 122.58 61.4489 122.426 61.8157C122.293 62.153 122.061 62.4141 121.731 62.5989C121.096 64.5432 120.442 66.4641 119.769 68.3618C119.128 70.2808 118.491 72.2123 117.856 74.1566C117.7 74.6289 117.423 74.9236 117.024 75.0407C116.65 75.1537 116.272 75.1358 115.89 74.987C115.514 74.8635 115.204 74.6242 114.96 74.2689C114.722 73.939 114.68 73.5378 114.835 73.0655C115.484 71.0664 116.149 69.0779 116.829 67.1C117.515 65.1475 118.183 63.1717 118.832 61.1726C117.19 59.3065 115.596 57.4194 114.051 55.5114C112.5 53.578 110.926 51.6614 109.33 49.7617C108.997 49.3682 108.865 48.9816 108.936 48.6019C109.026 48.1926 109.204 47.8744 109.471 47.6472C109.757 47.3905 110.099 47.2564 110.497 47.2448C110.92 47.2291 111.298 47.418 111.632 47.8115C113.014 49.4827 114.383 51.156 115.74 52.8313C117.091 54.4813 118.467 56.1272 119.869 57.7689C120.413 55.8919 120.833 53.9429 121.13 51.9217C121.27 50.8204 121.381 49.7105 121.464 48.5921C121.567 47.4442 121.834 46.3748 122.268 45.384C122.415 44.9919 122.67 44.714 123.031 44.5503C123.387 44.3614 123.785 44.3498 124.224 44.5156ZM127.85 45.6274C127.762 45.1417 127.858 44.7578 128.138 44.4758C128.413 44.1684 128.743 43.9835 129.128 43.9213C129.514 43.859 129.878 43.9318 130.221 44.1396C130.583 44.3179 130.808 44.6499 130.896 45.1356C130.932 45.2876 130.958 45.4544 130.975 45.636C131.01 45.788 131.046 45.9401 131.082 46.0922C131.809 45.5539 132.59 45.0727 133.424 44.6486C134.277 44.1951 135.145 43.8577 136.027 43.6364C136.934 43.4109 137.839 43.3438 138.742 43.4349C139.664 43.4966 140.556 43.7734 141.42 44.2654C141.858 44.5368 142.096 44.8667 142.134 45.2552C142.198 45.6395 142.122 45.9939 141.905 46.3183C141.708 46.6132 141.412 46.8319 141.019 46.9744C140.62 47.0915 140.191 47.0291 139.734 46.7872C139.397 46.6048 139.037 46.4919 138.653 46.4486C138.295 46.4012 137.913 46.4234 137.508 46.5151C137.122 46.5774 136.732 46.6797 136.339 46.8222C135.971 46.9605 135.62 47.1093 135.284 47.2688C134.023 47.9196 132.885 48.6953 131.87 49.5959C132.215 50.8294 132.585 52.0588 132.982 53.2841C133.33 54.3066 133.674 55.3692 134.015 56.4719C134.349 57.5492 134.813 58.553 135.407 59.4834C135.669 59.9146 135.72 60.301 135.561 60.6425C135.433 61.0052 135.188 61.2683 134.826 61.432C134.49 61.5914 134.099 61.6284 133.652 61.5427C133.23 61.4529 132.888 61.1923 132.626 60.7611C132.283 60.2113 132.001 59.6386 131.78 59.0428C131.559 58.447 131.338 57.8512 131.117 57.2554C130.928 56.6808 130.726 56.1082 130.511 55.5378C130.316 54.9378 130.124 54.3505 129.935 53.7759C129.483 52.4281 129.073 51.0867 128.704 49.7518C128.355 48.3873 128.07 47.0125 127.85 45.6274ZM149.657 57.1039C148.693 56.8648 147.877 56.4573 147.207 55.8814C146.557 55.276 146.033 54.5843 145.636 53.8065C145.264 53.0246 145.015 52.1965 144.889 51.3224C144.756 50.4229 144.736 49.5448 144.827 48.6881C144.908 48.0172 145.01 47.3167 145.131 46.5868C145.278 45.8527 145.488 45.161 145.762 44.5117C146.035 43.8624 146.407 43.2893 146.877 42.7925C147.341 42.2703 147.943 41.8836 148.685 41.6324C149.452 41.377 150.24 41.2104 151.048 41.1324C151.877 41.0249 152.705 40.9702 153.532 40.9683C153.904 40.9608 154.272 40.9935 154.636 41.0663C154.994 41.1137 155.355 41.1738 155.719 41.2466C155.655 40.8623 155.748 40.5185 155.996 40.2152C156.271 39.9078 156.588 39.7251 156.948 39.667C157.385 39.5964 157.768 39.6925 158.097 39.9551C158.445 40.1882 158.693 40.5034 158.84 40.9006C159.244 42.0457 159.571 43.2032 159.821 44.3732C160.096 45.539 160.333 46.711 160.531 47.8893C160.755 49.0634 160.979 50.2376 161.204 51.4117C161.453 52.5817 161.741 53.7454 162.068 54.9029C162.208 55.3803 162.14 55.7727 161.866 56.0801C161.611 56.358 161.291 56.5281 160.906 56.5903C160.52 56.6526 160.133 56.5966 159.745 56.4225C159.377 56.2189 159.123 55.8784 158.983 55.401C157.662 56.2458 156.19 56.8517 154.569 57.2187C152.941 57.5604 151.304 57.5221 149.657 57.1039ZM147.978 48.8108C147.932 49.2919 147.913 49.8343 147.922 50.4379C147.932 51.0416 148.025 51.6054 148.202 52.1293C148.379 52.6533 148.663 53.1205 149.053 53.531C149.438 53.9162 149.973 54.1456 150.657 54.2193C152.064 54.4131 153.402 54.3155 154.672 53.9264C155.966 53.5332 157.106 52.8757 158.089 51.954C157.898 50.6955 157.691 49.4792 157.467 48.3051C157.269 47.1268 157.016 45.9442 156.709 44.7572C156.206 44.5489 155.699 44.3808 155.189 44.2527C154.698 44.0952 154.173 44.022 153.615 44.0331C153.058 44.0442 152.467 44.0869 151.844 44.1612C151.241 44.206 150.662 44.2994 150.109 44.4414C150.057 44.4497 149.925 44.5105 149.712 44.6239C149.518 44.7078 149.411 44.7645 149.391 44.794C149.164 44.9622 148.981 45.2023 148.841 45.5143C148.615 46.0244 148.436 46.5664 148.304 47.1401C148.167 47.6885 148.058 48.2454 147.978 48.8108ZM181.584 23.2974C181.714 22.8292 181.966 22.5386 182.339 22.4256C182.733 22.2832 183.108 22.2885 183.464 22.4414C183.84 22.5649 184.15 22.8042 184.394 23.1595C184.664 23.5106 184.734 23.9202 184.605 24.3884C183.975 26.8055 183.447 29.2587 183.02 31.748C182.614 34.2079 182.239 36.689 181.896 39.1912C181.548 41.6681 181.186 44.1471 180.811 46.6282C180.436 49.1093 179.963 51.5668 179.39 54.0009C179.274 54.4143 179.007 54.6942 178.588 54.8408C178.2 55.0086 177.803 55.0202 177.395 54.8755C176.961 54.735 176.658 54.4683 176.485 54.0752C176.287 53.6863 176.248 53.2978 176.37 52.9098C176.943 50.4757 177.416 48.0182 177.791 45.5371C178.166 43.056 178.527 40.5771 178.876 38.1002C179.219 35.5979 179.594 33.1168 180 30.657C180.426 28.1676 180.954 25.7144 181.584 23.2974ZM197.699 31.0439C199.271 31.3268 200.803 31.711 202.295 32.1963C203.81 32.6462 205.237 33.3315 206.576 34.252C206.994 34.5318 207.283 34.9429 207.443 35.4853C207.596 35.9974 207.512 36.453 207.19 36.8523C206.217 38.0198 205.099 39.0526 203.838 39.9508C202.601 40.8136 201.374 41.722 200.159 42.676C199.222 43.4586 198.305 44.2538 197.407 45.0618C196.509 45.8699 195.611 46.6779 194.713 47.4859C194.261 47.8747 193.785 48.0304 193.286 47.953C192.811 47.8403 192.404 47.6061 192.063 47.2506C191.754 46.8901 191.573 46.4616 191.52 45.965C191.466 45.4684 191.651 45.0282 192.072 44.6444C193.001 43.8314 193.915 43.021 194.813 42.213C195.711 41.4049 196.631 40.6249 197.575 39.8727C198.347 39.2113 199.177 38.588 200.063 38.0028C200.95 37.4176 201.78 36.7943 202.552 36.1329C201.69 35.7354 200.802 35.4366 199.89 35.2366C198.971 35.0061 198.028 34.811 197.062 34.6513C195.658 34.4043 194.286 34.1523 192.944 33.8953C191.626 33.6029 190.264 33.3966 188.858 33.2762C188.236 33.2188 187.782 32.9921 187.496 32.5962C187.204 32.1699 187.069 31.7339 187.091 31.2882C187.114 30.8425 187.278 30.4529 187.584 30.1194C187.913 29.7505 188.385 29.5796 189 29.6066C190.467 29.717 191.91 29.9262 193.328 30.234C194.777 30.5369 196.234 30.8068 197.699 31.0439Z" fill="black"/>
<path d="M178.589 90.5557C178.708 90.6272 178.802 90.7354 178.868 90.8804C178.934 91.0254 178.946 91.162 178.903 91.2902C178.851 91.4458 178.762 91.5608 178.636 91.6353C178.537 91.7459 178.411 91.7976 178.255 91.7904C178.101 91.7923 177.972 91.7437 177.87 91.6447C177.731 91.537 177.643 91.447 177.605 91.3745C177.53 91.2478 177.505 91.1205 177.53 90.9926C177.564 90.8646 177.635 90.7543 177.743 90.6619C177.761 90.6434 177.783 90.6249 177.81 90.6063C177.837 90.5787 177.864 90.5555 177.891 90.537C177.972 90.4995 178.018 90.4807 178.027 90.4806C178.045 90.4804 178.099 90.4706 178.19 90.4512C178.263 90.4503 178.318 90.4588 178.355 90.4766C178.446 90.4937 178.524 90.52 178.589 90.5557ZM178.735 86.5615C178.855 86.6329 178.948 86.7412 179.015 86.8862C179.081 87.0221 179.093 87.1541 179.049 87.2823C179.015 87.4103 178.931 87.5298 178.796 87.6409C178.698 87.7515 178.571 87.8032 178.416 87.796C178.261 87.7888 178.132 87.7357 178.03 87.6366C177.901 87.5562 177.808 87.4708 177.752 87.3803C177.677 87.2536 177.656 87.1263 177.69 86.9982C177.724 86.8611 177.791 86.7509 177.89 86.6676C177.952 86.603 178.006 86.5614 178.051 86.5426C178.124 86.5052 178.169 86.4864 178.187 86.4862C178.205 86.4769 178.255 86.4671 178.337 86.457C178.364 86.4476 178.396 86.4472 178.433 86.4558C178.469 86.4645 178.497 86.4687 178.515 86.4685C178.561 86.477 178.597 86.4903 178.625 86.5082C178.662 86.5259 178.699 86.5437 178.735 86.5615ZM186.515 88.0379C186.48 88.5944 186.325 89.0931 186.05 89.534C185.775 89.9658 185.408 90.3349 184.949 90.6414C184.642 90.8366 184.313 91.0138 183.96 91.1731C183.607 91.3324 183.254 91.4553 182.9 91.5417C182.582 91.6185 182.269 91.6543 181.959 91.649C181.658 91.6436 181.352 91.6246 181.041 91.5919C180.97 91.6749 180.88 91.7307 180.771 91.7594C180.671 91.797 180.571 91.8028 180.47 91.7767C180.26 91.7246 180.13 91.5941 180.08 91.385C179.969 91.277 179.912 91.1456 179.909 90.9906C179.906 90.7901 179.994 90.6295 180.174 90.5088C180.222 90.1436 180.257 89.7786 180.277 89.4137C180.307 89.0488 180.328 88.6793 180.339 88.3055C180.359 87.8677 180.374 87.4346 180.384 87.006C180.395 86.5775 180.392 86.1446 180.375 85.7072C180.37 85.4338 180.355 85.1515 180.332 84.8601C180.308 84.5687 180.294 84.2817 180.289 83.9992C180.284 83.7076 180.292 83.4204 180.314 83.1375C180.346 82.8546 180.409 82.5803 180.505 82.3148C180.457 82.1696 180.463 82.0191 180.524 81.8634C180.585 81.7077 180.706 81.6105 180.888 81.5718C180.995 81.4519 181.122 81.3957 181.268 81.403C181.423 81.4102 181.551 81.4588 181.653 81.5487C182.1 81.5796 182.535 81.6608 182.957 81.7924C183.387 81.9147 183.783 82.1194 184.144 82.4067C184.587 82.7476 184.946 83.1625 185.219 83.6513C185.492 84.131 185.715 84.6296 185.889 85.147C185.966 85.374 186.043 85.6055 186.12 85.8415C186.206 86.0774 186.279 86.3181 186.338 86.5635C186.406 86.8087 186.456 87.0542 186.488 87.2999C186.52 87.5457 186.529 87.7917 186.515 88.0379ZM184.263 89.7748C184.38 89.7004 184.484 89.6262 184.573 89.5522C184.672 89.478 184.771 89.3902 184.869 89.2888C184.95 89.1966 185.012 89.1229 185.057 89.0677C185.102 89.0124 185.155 88.9298 185.217 88.8196C185.366 88.4987 185.432 88.1379 185.416 87.737C185.412 87.5092 185.39 87.2998 185.35 87.1089C185.31 86.9088 185.251 86.6862 185.174 86.4411C185.096 86.1868 185.014 85.9372 184.928 85.6921C184.85 85.4379 184.759 85.1929 184.655 84.9572C184.578 84.7576 184.474 84.5447 184.342 84.3184C184.219 84.0829 184.093 83.8885 183.963 83.7352C183.637 83.3563 183.272 83.0874 182.868 82.9283C182.464 82.7601 182.024 82.6652 181.55 82.6437C181.454 82.9001 181.395 83.1698 181.373 83.4526C181.36 83.7262 181.36 84.0042 181.374 84.2866C181.389 84.569 181.407 84.8514 181.431 85.1336C181.463 85.4158 181.477 85.6891 181.473 85.9535C181.45 86.7285 181.428 87.4945 181.405 88.2513C181.391 89.0081 181.341 89.7698 181.255 90.5365C181.419 90.5527 181.583 90.5644 181.748 90.5715C181.921 90.5784 182.089 90.5718 182.253 90.5516C182.599 90.5108 182.944 90.42 183.288 90.279C183.64 90.1288 183.965 89.9608 184.263 89.7748ZM187.426 83.1729C187.242 83.1205 187.131 83.0033 187.091 82.8215C187.043 82.6945 187.054 82.5576 187.125 82.4109C187.195 82.2551 187.307 82.1671 187.462 82.147C188.343 81.9994 189.226 81.9156 190.11 81.8956C191.003 81.8664 191.896 81.8417 192.789 81.8215C192.962 81.8194 193.095 81.8725 193.188 81.9807C193.281 82.0889 193.329 82.2114 193.331 82.3481C193.334 82.4848 193.291 82.6129 193.202 82.7325C193.112 82.843 192.981 82.8993 192.808 82.9015C192.098 82.9284 191.382 82.9464 190.662 82.9553C189.942 82.9641 189.223 83.0095 188.504 83.0912C188.529 83.4555 188.558 83.8198 188.592 84.184C188.626 84.539 188.66 84.8987 188.694 85.2629C189.386 85.2179 190.073 85.1638 190.756 85.1007C191.447 85.0375 192.14 85.0198 192.833 85.0478C193.007 85.0547 193.14 85.1169 193.233 85.2342C193.326 85.3516 193.374 85.4786 193.377 85.6153C193.379 85.752 193.336 85.8756 193.247 85.9861C193.158 86.0966 193.026 86.1483 192.853 86.1413C192.169 86.1133 191.49 86.1308 190.816 86.1938C190.152 86.2567 189.479 86.3105 188.796 86.3554C188.862 87.0109 188.924 87.6664 188.982 88.322C189.048 88.9684 189.096 89.6195 189.126 90.2754C189.444 90.1986 189.766 90.1262 190.093 90.0584C190.42 89.9814 190.747 89.9227 191.074 89.8822C191.402 89.8326 191.729 89.8058 192.058 89.8017C192.386 89.7977 192.714 89.821 193.043 89.8716C193.19 89.8972 193.301 89.9824 193.376 90.1273C193.452 90.2722 193.472 90.4087 193.438 90.5367C193.395 90.6922 193.311 90.8026 193.184 90.868C193.058 90.9334 192.917 90.9533 192.762 90.9279C192.469 90.8768 192.172 90.8622 191.872 90.8842C191.572 90.9061 191.276 90.9417 190.985 90.9908C190.649 91.0496 190.313 91.1176 189.977 91.1947C189.65 91.2716 189.323 91.3531 188.997 91.4392C188.842 91.4775 188.696 91.452 188.558 91.3626C188.43 91.3459 188.315 91.2972 188.213 91.2164C188.112 91.1356 188.059 91.0132 188.056 90.8492C188.024 90.0748 187.974 89.3097 187.906 88.554C187.846 87.7982 187.778 87.0379 187.7 86.2732C187.598 86.1742 187.537 86.0519 187.516 85.9063C187.504 85.7515 187.543 85.6189 187.632 85.5084C187.545 84.7347 187.476 83.9562 187.426 83.1729ZM196.515 91.3328C196.174 90.5805 195.882 89.8093 195.64 89.0193C195.397 88.2201 195.182 87.4206 194.995 86.6208C194.816 85.8118 194.646 85.0026 194.486 84.1933C194.325 83.375 194.151 82.5659 193.964 81.766C193.924 81.5933 193.949 81.4472 194.038 81.3276C194.127 81.208 194.235 81.1292 194.362 81.0912C194.498 81.053 194.63 81.0605 194.759 81.1136C194.887 81.1667 194.971 81.2796 195.011 81.4523C195.198 82.2522 195.372 83.0521 195.533 83.8523C195.693 84.6433 195.867 85.4388 196.054 86.2386C196.193 86.8476 196.341 87.4565 196.498 88.0653C196.663 88.6648 196.856 89.264 197.077 89.8629C197.148 89.7344 197.214 89.606 197.275 89.4776C197.336 89.3402 197.398 89.2027 197.459 89.0652C197.801 88.2862 198.101 87.4895 198.359 86.675C198.618 85.8606 198.845 85.0283 199.039 84.1782C199.243 83.328 199.35 82.4744 199.362 81.6175C199.359 81.4443 199.416 81.316 199.533 81.2325C199.65 81.1399 199.777 81.0928 199.913 81.0911C200.05 81.0894 200.174 81.1335 200.285 81.2232C200.396 81.3039 200.448 81.4309 200.442 81.6041C200.441 82.5248 200.334 83.4422 200.123 84.3563C199.911 85.2613 199.667 86.153 199.391 87.0315C199.245 87.4799 199.088 87.9239 198.923 88.3635C198.758 88.794 198.579 89.2291 198.386 89.669C198.237 89.9808 198.083 90.288 197.924 90.5908C197.765 90.8844 197.584 91.1647 197.379 91.4316C197.325 91.496 197.258 91.5424 197.176 91.5708C197.095 91.5991 197.008 91.6048 196.917 91.5876C196.834 91.5795 196.756 91.5532 196.683 91.5085C196.609 91.4638 196.553 91.4053 196.515 91.3328Z" fill="black"/>
</svg>
